PathFileType	4	(X/Y/Z)	output.trc
DataRate	CameraRate	NumFrames	NumMarkers	Units	OrigDataRate	OrigDataStartFrame	OrigNumFrames
200	200	4	66	mm	200	185	295
Frame#	Time			LASI			RASI			RSACR			LSACR			USACR			LBAR			RBAR			RHEE			RMT1			RMT5			RMT2			LHEE			LMT1			LMT5			LMT2			LMMAL			LMFC			LLFC			LLMAL			LTIB4			LTIB2			LTIB3			LTIB1			RMMAL			RMFC			RLFC			RLMAL			RTIB1			RTIB2			RTIB3			RTHI1			RTHI4			RTHI3			RTHI2			LTHI1			LTHI4			LTHI3			LTHI2			FHD			LBHD			RBHD			C7			T10			CLAV			LSHO			RSHO			LRAD			LUL			LRFIN			RRAD			RUL			RUFIN			RLEP			RMEP			LLEP			LMEP			LDUPA			LMUPA			LUUPA			RDUPA			RUUPA			RMUPA			RKJC			LKJC			LAKJC			RAKJC
		X1	Y1	Z1	X2	Y2	Z2	X3	Y3	Z3	X4	Y4	Z4	X5	Y5	Z5	X6	Y6	Z6	X7	Y7	Z7	X8	Y8	Z8	X9	Y9	Z9	X10	Y10	Z10	X11	Y11	Z11	X12	Y12	Z12	X13	Y13	Z13	X14	Y14	Z14	X15	Y15	Z15	X16	Y16	Z16	X17	Y17	Z17	X18	Y18	Z18	X19	Y19	Z19	X20	Y20	Z20	X21	Y21	Z21	X22	Y22	Z22	X23	Y23	Z23	X24	Y24	Z24	X25	Y25	Z25	X26	Y26	Z26	X27	Y27	Z27	X28	Y28	Z28	X29	Y29	Z29	X30	Y30	Z30	X31	Y31	Z31	X32	Y32	Z32	X33	Y33	Z33	X34	Y34	Z34	X35	Y35	Z35	X36	Y36	Z36	X37	Y37	Z37	X38	Y38	Z38	X39	Y39	Z39	X40	Y40	Z40	X41	Y41	Z41	X42	Y42	Z42	X43	Y43	Z43	X44	Y44	Z44	X45	Y45	Z45	X46	Y46	Z46	X47	Y47	Z47	X48	Y48	Z48	X49	Y49	Z49	X50	Y50	Z50	X51	Y51	Z51	X52	Y52	Z52	X53	Y53	Z53	X54	Y54	Z54	X55	Y55	Z55	X56	Y56	Z56	X57	Y57	Z57	X58	Y58	Z58	X59	Y59	Z59	X60	Y60	Z60	X61	Y61	Z61	X62	Y62	Z62	X63	Y63	Z63	X64	Y64	Z64	X65	Y65	Z65	X66	Y66	Z66
184	0.920000	133.765900	761.883301	918.204956	129.466339	984.400940	918.826965	309.199677	912.270325	950.089355	308.176422	852.464905	953.339783	297.530853	882.228394	966.488037	1270.838257	-346.489746	26.299427	1226.430298	1876.956665	26.265146	323.054230	1019.663147	39.831970	128.169754	1043.316406	43.452202	164.996353	1113.785767	34.995647	140.177704	1079.962891	42.702759	326.241638	745.164856	45.826817	134.384277	736.442871	46.338734	169.964340	662.783386	33.416019	143.159851	698.031799	45.925308	276.676575	778.674316	72.962646	232.765457	828.966125	456.951965	219.189041	721.328857	453.988586	278.788605	700.971130	69.127014	290.259460	691.422852	209.608688	313.908722	691.389160	270.906830	263.425171	684.469482	268.154083	301.599274	687.011169	314.321838	275.166382	994.073730	68.343849	235.195175	935.275696	446.541077	220.449081	1041.157104	461.310608	284.663300	1068.588135	72.255295	257.015533	1082.650269	319.286896	307.443878	1077.117676	314.029144	276.504425	1081.277954	256.166718	241.563812	1059.932495	783.822510	242.660858	1064.460083	635.120361	191.263901	1066.438110	636.996765	218.971237	1070.013428	696.983093	238.462753	698.567871	778.892151	236.399658	694.932922	646.568359	185.676086	693.029663	637.494263	200.102356	689.138000	701.220947	130.779556	775.850220	1593.144775	241.544724	786.858337	1576.050415	253.032501	910.323364	1571.210693	263.167694	858.131348	1391.329102	285.551300	877.326355	1007.463989	140.838135	872.925171	1328.156128	244.826599	725.420776	1380.866699	236.778702	986.992798	1396.745605	166.666046	222.772079	1359.672607	207.292847	222.496384	1355.126099	153.477783	130.760681	1339.151245	241.000244	1500.801636	1389.348389	287.900269	1499.941895	1383.130981	235.245499	1590.977295	1391.600586	293.215820	1271.520630	1329.770386	254.880844	1272.044434	1296.296387	222.000839	454.186432	1300.957275	181.040344	466.790710	1278.592285	238.099930	506.317444	1354.450928	202.181503	536.842346	1372.052002	239.114594	585.513367	1362.879150	266.319611	1205.910767	1382.228516	257.089325	1144.202881	1383.899658	216.055893	1212.426514	1385.418701	227.822128	988.216431	453.925842	225.977249	775.147461	455.470276	277.732605	739.822754	71.044830	279.914856	1031.330933	70.299576
185	0.925000	133.773956	761.896912	918.198792	129.484055	984.404602	918.824585	309.220459	912.261536	950.089050	308.205597	852.464966	953.349365	297.548035	882.225403	966.478943	1270.837402	-346.487457	26.299582	1226.415894	1876.963989	26.291887	323.056427	1019.640442	39.833004	128.166077	1043.326416	43.452610	165.003174	1113.785034	34.998077	140.176590	1079.964111	42.705612	326.246002	745.160767	45.820999	134.383408	736.447021	46.339382	169.971786	662.785095	33.419445	143.159576	698.031494	45.921906	276.681885	778.679810	72.959274	232.769775	828.968262	456.944794	219.191742	721.334961	453.989227	278.791962	700.974670	69.134521	290.254608	691.430786	209.606873	313.860168	691.379883	270.958313	263.369080	684.394348	268.130615	301.605896	687.020264	314.293243	275.171722	994.075867	68.343956	235.191559	935.278748	446.543854	220.469162	1041.158936	461.308350	284.658325	1068.593384	72.250671	257.019836	1082.664307	319.279327	307.466309	1077.121460	314.022156	276.514343	1081.278442	256.153229	241.573288	1059.936035	783.821777	242.687836	1064.477173	635.109619	191.276077	1066.471436	636.990234	218.987350	1070.019897	696.972290	238.459625	698.574341	778.895691	236.388123	694.950256	646.555054	185.695908	693.023926	637.492004	200.126755	689.142029	701.218384	130.820435	775.852051	1593.139160	241.543289	786.855225	1576.064697	253.043228	910.322754	1571.203735	263.169403	858.120300	1391.326416	285.570709	877.327393	1007.472351	140.837662	872.917114	1328.146851	244.847824	725.409119	1380.870361	236.781967	986.988525	1396.752075	166.668152	222.771744	1359.659790	207.300339	222.491989	1355.111572	153.467377	130.768036	1339.160645	241.010803	1500.798462	1389.368164	287.909668	1499.937134	1383.134155	235.255096	1590.961914	1391.615723	293.210388	1271.518921	1329.774048	254.882858	1272.039185	1296.306274	221.998734	454.185272	1300.957153	181.057632	466.785034	1278.583862	238.111725	506.303955	1354.460083	202.184509	536.831726	1372.045776	239.111832	585.500671	1362.895996	266.324860	1205.905518	1382.239502	257.098846	1144.191406	1383.898804	216.061905	1212.420166	1385.425049	227.830353	988.218872	453.926086	225.980759	775.151611	455.467010	277.736938	739.827271	71.046898	279.915039	1031.334595	70.297318
186	0.930000	133.782349	761.901367	918.198792	129.509827	984.408813	918.820984	309.230560	912.260376	950.094727	308.213348	852.450317	953.358032	297.568390	882.214172	966.486206	1270.823120	-346.539734	26.293308	1226.432129	1876.970947	26.277843	323.047791	1019.649780	39.838501	128.176514	1043.323975	43.444988	165.072464	1113.672607	34.827065	140.179825	1079.963257	42.705635	326.238190	745.157837	45.826023	134.385666	736.444946	46.339024	169.963928	662.789307	33.420815	143.167786	698.031616	45.920177	276.688049	778.677063	72.960800	232.780045	828.978516	456.948486	219.195770	721.336914	453.992157	278.785095	700.965088	69.118347	290.257233	691.430969	209.605225	313.908234	691.401611	270.906403	263.355713	684.402954	268.129517	301.603546	687.024841	314.286652	275.178131	994.068848	68.344475	235.208466	935.278137	446.539551	220.482300	1041.155518	461.306671	284.650757	1068.585083	72.249962	257.033447	1082.648560	319.280518	307.473297	1077.114502	314.021667	276.512970	1081.282837	256.152008	241.594849	1059.937378	783.823242	242.709137	1064.468872	635.121826	191.302185	1066.451172	637.002014	219.048691	1070.015625	696.976685	238.461975	698.571777	778.895813	236.384659	694.947510	646.562012	185.698547	693.008545	637.502808	200.137802	689.135071	701.219238	130.815506	775.849243	1593.145142	241.532425	786.855347	1576.054199	253.039124	910.321045	1571.195190	263.171814	858.118286	1391.337646	285.586060	877.322754	1007.464905	140.839798	872.914185	1328.138916	244.844437	725.402283	1380.877197	236.786804	986.980652	1396.752075	166.668747	222.766464	1359.648315	207.298157	222.482742	1355.113647	153.436371	130.679993	1339.262695	241.021683	1500.788208	1389.381714	287.909454	1499.935303	1383.151123	235.259644	1590.954956	1391.623535	293.207550	1271.511353	1329.775513	254.892349	1272.032349	1296.310913	222.005371	454.179779	1300.955200	181.062988	466.775299	1278.579834	238.100235	506.308807	1354.448608	202.193604	536.839600	1372.044922	239.122070	585.509766	1362.865356	266.335052	1205.896362	1382.237427	257.111969	1144.181274	1383.909912	216.124756	1212.364868	1385.352417	227.845383	988.216797	453.923096	225.987915	775.157715	455.470337	277.736572	739.821045	71.039574	279.914429	1031.326904	70.297218
187	0.935000	133.795593	761.902466	918.199219	129.521500	984.412292	918.823120	309.249207	912.258667	950.093689	308.238159	852.451721	953.360291	297.580231	882.215332	966.484375	1270.829956	-346.470581	26.293125	1226.420410	1876.973999	26.278772	323.052521	1019.642334	39.837097	128.168243	1043.324707	43.446880	165.003189	1113.794189	34.995605	140.172272	1079.961182	42.707993	326.241455	745.154968	45.822010	134.390839	736.445435	46.334038	169.955597	662.788452	33.429482	143.167297	698.038147	45.921497	276.674652	778.684631	72.963928	232.807495	828.969055	456.940399	219.211014	721.343628	453.996887	278.794006	700.967896	69.126831	290.256744	691.426453	209.600571	313.906616	691.382507	270.893982	263.430145	684.474792	268.147919	301.593994	687.006897	314.317505	275.184937	994.078674	68.344086	235.223526	935.286560	446.537720	220.489090	1041.171021	461.313965	284.661957	1068.587646	72.248940	257.048096	1082.653564	319.276428	307.500854	1077.105591	314.023438	276.538177	1081.284058	256.161865	241.626236	1059.936890	783.826782	242.725418	1064.447632	635.115967	191.326843	1066.494629	637.003479	219.036194	1070.032715	696.991333	238.460312	698.562744	778.894653	236.397141	694.928833	646.572937	185.707825	693.013489	637.503540	200.139008	689.138611	701.220093	130.816772	775.848328	1593.164185	241.551270	786.858459	1576.051270	253.040070	910.323669	1571.184937	263.169922	858.119507	1391.351318	285.599335	877.321167	1007.476868	140.835236	872.910278	1328.139404	244.847107	725.398743	1380.876343	236.788284	986.976501	1396.757812	166.663376	222.758926	1359.633423	207.293961	222.475159	1355.097778	153.438828	130.761032	1339.159180	241.019669	1500.780396	1389.382202	287.923462	1499.930176	1383.161255	235.271759	1590.947754	1391.628906	293.216919	1271.502686	1329.784668	254.874878	1272.030640	1296.328613	222.015381	454.165802	1300.948853	181.072693	466.774170	1278.574341	238.104050	506.295166	1354.442139	202.186371	536.823364	1372.037109	239.148697	585.491699	1362.845337	266.328461	1205.893799	1382.250000	257.124542	1144.171143	1383.911499	216.134430	1212.350342	1385.364380	227.856308	988.228760	453.925842	226.009247	775.156372	455.468628	277.734314	739.826294	71.045380	279.923462	1031.333130	70.296509
